<?xml version="1.0" encoding="UTF-8" ?>
<!DOCTYPE svg PUBLIC "-//W3C//DTD SVG 1.1//EN" "http://www.w3.org/Graphics/SVG/1.1/DTD/svg11.dtd">
<svg width="128pt" height="128pt" viewBox="0 0 128 128" version="1.1" xmlns="http://www.w3.org/2000/svg">
<g id="#8a8a8aff">
<path fill="#8a8a8a" opacity="1.00" d=" M 18.34 19.96 C 25.53 11.72 36.12 6.54 47.05 5.94 C 59.96 5.00 73.17 10.57 81.47 20.52 C 90.05 30.28 93.47 44.28 90.46 56.91 C 89.33 57.66 88.21 58.43 87.09 59.19 C 90.18 49.46 89.45 38.30 84.20 29.44 C 78.71 19.11 68.55 11.27 57.00 9.09 C 45.89 6.67 33.81 9.70 25.01 16.85 C 18.99 21.68 14.55 28.36 12.23 35.71 C 6.24 52.79 14.34 73.23 30.18 81.86 C 39.07 86.98 49.97 88.26 59.85 85.59 C 59.67 86.30 59.31 87.71 59.12 88.41 C 48.75 90.97 37.44 89.18 28.29 83.69 C 17.37 77.29 9.65 65.66 8.17 53.07 C 6.54 41.26 10.35 28.81 18.34 19.96 Z" />
</g>
<g id="#ffffffff">
<path fill="#ffffff" opacity="1.00" d=" M 25.01 16.85 C 33.81 9.70 45.89 6.67 57.00 9.09 C 68.55 11.27 78.71 19.11 84.20 29.44 C 84.49 33.95 86.69 38.40 85.19 42.91 C 82.91 36.99 81.40 30.64 77.41 25.55 C 68.66 13.18 51.46 7.87 37.26 13.16 C 28.25 16.28 20.72 23.25 16.81 31.93 C 15.84 34.15 14.76 36.32 13.27 38.24 C 13.01 37.61 12.49 36.34 12.23 35.71 C 14.55 28.36 18.99 21.68 25.01 16.85 Z" />
<path fill="#ffffff" opacity="1.00" d=" M 12.82 54.65 C 15.71 57.25 16.60 61.18 18.64 64.36 C 24.48 74.15 35.20 80.88 46.62 81.54 C 58.64 82.45 70.88 76.65 77.79 66.79 C 79.36 64.62 80.48 61.95 82.98 60.68 C 82.69 65.32 79.09 68.65 77.71 72.92 C 77.06 73.51 76.40 74.10 75.75 74.69 C 71.47 76.50 67.97 79.73 63.63 81.41 C 51.26 86.61 36.19 84.71 25.67 76.34 C 18.98 71.05 13.38 63.40 12.82 54.65 Z" />
</g>
<g id="#dcdcdcff">
<path fill="#dcdcdc" opacity="1.00" d=" M 37.26 13.16 C 51.46 7.87 68.66 13.18 77.41 25.55 C 81.40 30.64 82.91 36.99 85.19 42.91 C 86.69 38.40 84.49 33.95 84.20 29.44 C 89.45 38.30 90.18 49.46 87.09 59.19 C 85.46 63.81 82.83 68.00 80.03 72.00 C 79.45 72.23 78.29 72.69 77.71 72.92 C 79.09 68.65 82.69 65.32 82.98 60.68 C 80.48 61.95 79.36 64.62 77.79 66.79 C 70.88 76.65 58.64 82.45 46.62 81.54 C 35.20 80.88 24.48 74.15 18.64 64.36 C 16.60 61.18 15.71 57.25 12.82 54.65 C 13.38 63.40 18.98 71.05 25.67 76.34 C 36.19 84.71 51.26 86.61 63.63 81.41 C 67.97 79.73 71.47 76.50 75.75 74.69 C 75.15 75.77 74.55 76.86 73.97 77.96 C 69.71 81.22 65.02 84.05 59.85 85.59 C 49.97 88.26 39.07 86.98 30.18 81.86 C 14.34 73.23 6.24 52.79 12.23 35.71 C 12.49 36.34 13.01 37.61 13.27 38.24 C 14.76 36.32 15.84 34.15 16.81 31.93 C 20.72 23.25 28.25 16.28 37.26 13.16 M 42.11 15.29 C 32.50 17.35 24.05 24.06 19.88 32.96 C 14.37 44.28 16.36 58.72 24.81 68.07 C 31.48 75.74 41.92 79.92 52.05 78.85 C 62.54 78.00 72.30 71.48 77.28 62.24 C 81.99 53.75 82.50 43.12 78.67 34.21 C 73.05 20.22 56.79 11.80 42.11 15.29 Z" />
<path fill="#dcdcdc" opacity="1.00" d=" M 83.11 76.21 C 84.16 76.12 85.05 76.47 85.77 77.26 C 94.34 84.72 102.88 92.20 111.46 99.65 C 112.96 101.00 114.73 102.17 115.76 103.96 C 115.21 105.89 113.09 104.74 112.25 103.81 C 102.50 95.13 92.47 86.75 82.83 77.96 C 82.90 77.52 83.04 76.65 83.11 76.21 Z" />
</g>
<g id="#3063a3ff">
<path fill="#3063a3" opacity="1.00" d=" M 42.11 15.29 C 56.79 11.80 73.05 20.22 78.67 34.21 C 82.50 43.12 81.99 53.75 77.28 62.24 C 72.30 71.48 62.54 78.00 52.05 78.85 C 41.92 79.92 31.48 75.74 24.81 68.07 C 16.36 58.72 14.37 44.28 19.88 32.96 C 24.05 24.06 32.50 17.35 42.11 15.29 M 43.04 17.89 C 33.76 19.68 25.67 26.37 21.94 35.02 C 18.14 43.62 18.91 53.95 23.61 62.04 C 25.93 65.44 28.64 68.57 31.97 71.01 C 35.15 72.94 38.46 74.80 42.18 75.45 L 42.34 75.65 C 50.23 77.31 58.65 75.84 65.41 71.41 C 69.04 68.98 71.96 65.70 74.35 62.08 C 75.56 59.77 76.77 57.43 77.45 54.90 C 81.02 42.96 76.00 29.15 65.58 22.32 C 59.09 17.87 50.73 16.22 43.04 17.89 Z" />
</g>
<g id="#4c6b8bac">
<path fill="#4c6b8b" opacity="0.67" d=" M 43.04 17.89 C 50.73 16.22 59.09 17.87 65.58 22.32 C 76.00 29.15 81.02 42.96 77.45 54.90 C 76.13 48.03 72.01 40.64 65.10 38.23 L 65.32 37.60 C 66.34 34.78 66.89 31.82 67.41 28.87 C 66.02 27.52 64.67 26.12 63.18 24.87 C 60.47 22.91 57.43 21.42 54.23 20.47 C 50.84 19.79 47.35 19.65 43.94 20.14 C 38.25 21.27 33.06 24.31 29.26 28.67 C 27.75 30.54 26.49 32.60 25.41 34.74 C 24.19 37.73 23.57 40.92 23.33 44.13 C 23.43 46.20 23.69 48.26 24.06 50.29 C 24.66 52.08 25.39 53.81 26.09 55.56 L 25.51 55.83 C 24.31 57.69 23.99 59.91 23.61 62.04 C 18.91 53.95 18.14 43.62 21.94 35.02 C 25.67 26.37 33.76 19.68 43.04 17.89 Z" />
</g>
<g id="#c2cbd6e1">
<path fill="#c2cbd6" opacity="0.88" d=" M 43.94 20.14 C 47.35 19.65 50.84 19.79 54.23 20.47 C 55.31 23.19 56.83 25.91 56.76 28.91 C 51.75 38.36 39.74 41.75 29.81 39.35 C 28.04 38.15 26.83 36.31 25.41 34.74 C 26.49 32.60 27.75 30.54 29.26 28.67 C 30.75 31.07 31.73 34.37 34.69 35.34 C 40.15 36.95 46.69 34.64 49.78 29.85 C 50.92 25.65 47.11 22.23 43.94 20.14 Z" />
</g>
<g id="#d3dbe3eb">
<path fill="#d3dbe3" opacity="0.92" d=" M 29.26 28.67 C 33.06 24.31 38.25 21.27 43.94 20.14 C 47.11 22.23 50.92 25.65 49.78 29.85 C 46.69 34.64 40.15 36.95 34.69 35.34 C 31.73 34.37 30.75 31.07 29.26 28.67 Z" />
</g>
<g id="#b3bfcbd8">
<path fill="#b3bfcb" opacity="0.85" d=" M 54.23 20.47 C 57.43 21.42 60.47 22.91 63.18 24.87 C 63.42 26.81 63.56 28.75 63.78 30.69 C 59.06 34.84 54.20 39.12 48.12 41.13 C 40.30 44.46 31.69 44.79 23.33 44.13 C 23.57 40.92 24.19 37.73 25.41 34.74 C 26.83 36.31 28.04 38.15 29.81 39.35 C 39.74 41.75 51.75 38.36 56.76 28.91 C 56.83 25.91 55.31 23.19 54.23 20.47 Z" />
</g>
<g id="#a5b2becc">
<path fill="#a5b2be" opacity="0.80" d=" M 63.18 24.87 C 64.67 26.12 66.02 27.52 67.41 28.87 C 66.89 31.82 66.34 34.78 65.32 37.60 C 58.39 40.04 52.01 43.88 44.87 45.76 C 37.99 47.52 31.06 49.14 24.06 50.29 C 23.69 48.26 23.43 46.20 23.33 44.13 C 31.69 44.79 40.30 44.46 48.12 41.13 C 54.20 39.12 59.06 34.84 63.78 30.69 C 63.56 28.75 63.42 26.81 63.18 24.87 Z" />
</g>
<g id="#99a4b0bd">
<path fill="#99a4b0" opacity="0.74" d=" M 44.87 45.76 C 52.01 43.88 58.39 40.04 65.32 37.60 L 65.10 38.23 C 64.69 39.31 64.26 40.37 63.80 41.43 C 62.95 42.76 62.10 44.09 61.17 45.36 C 55.90 45.46 51.11 47.88 46.09 49.18 C 39.30 50.93 32.96 54.07 26.09 55.56 C 25.39 53.81 24.66 52.08 24.06 50.29 C 31.06 49.14 37.99 47.52 44.87 45.76 Z" />
</g>
<g id="#405a7591">
<path fill="#405a75" opacity="0.57" d=" M 65.10 38.23 C 72.01 40.64 76.13 48.03 77.45 54.90 C 76.77 57.43 75.56 59.77 74.35 62.08 C 73.64 57.94 73.16 53.63 71.20 49.84 C 69.43 46.50 66.52 43.98 63.80 41.43 C 64.26 40.37 64.69 39.31 65.10 38.23 Z" />
</g>
<g id="#394f6780">
<path fill="#394f67" opacity="0.50" d=" M 61.17 45.36 C 62.10 44.09 62.95 42.76 63.80 41.43 C 66.52 43.98 69.43 46.50 71.20 49.84 C 73.16 53.63 73.64 57.94 74.35 62.08 C 71.96 65.70 69.04 68.98 65.41 71.41 C 67.45 67.22 69.89 62.82 68.99 57.97 C 68.76 52.83 65.79 48.23 61.49 45.51 L 61.17 45.36 Z" />
</g>
<g id="#88929ca7">
<path fill="#88929c" opacity="0.65" d=" M 46.09 49.18 C 51.11 47.88 55.90 45.46 61.17 45.36 L 61.49 45.51 C 60.29 46.77 59.14 48.06 57.89 49.26 C 56.68 50.38 55.40 51.43 54.06 52.40 C 51.17 54.35 47.98 55.85 44.62 56.79 C 42.74 57.26 40.84 57.55 38.92 57.77 C 37.54 57.83 36.15 57.84 34.76 57.80 C 34.03 57.69 32.55 57.46 31.82 57.35 C 29.69 56.95 27.60 56.39 25.51 55.83 L 26.09 55.56 C 32.96 54.07 39.30 50.93 46.09 49.18 Z" />
</g>
<g id="#3144596e">
<path fill="#314459" opacity="0.43" d=" M 61.49 45.51 C 65.79 48.23 68.76 52.83 68.99 57.97 C 69.89 62.82 67.45 67.22 65.41 71.41 C 58.65 75.84 50.23 77.31 42.34 75.65 L 42.18 75.45 C 40.40 73.04 38.34 70.83 36.68 68.33 C 34.65 65.22 34.91 61.35 34.76 57.80 C 36.15 57.84 37.54 57.83 38.92 57.77 C 39.36 61.74 40.06 66.06 43.20 68.88 C 46.54 72.59 52.16 72.83 56.68 71.56 C 61.84 69.63 65.12 63.88 64.57 58.46 C 63.82 54.62 62.14 50.26 57.89 49.26 C 59.14 48.06 60.29 46.77 61.49 45.51 Z" />
</g>
<g id="#29394a5c">
<path fill="#29394a" opacity="0.36" d=" M 54.06 52.40 C 55.40 51.43 56.68 50.38 57.89 49.26 C 62.14 50.26 63.82 54.62 64.57 58.46 C 65.12 63.88 61.84 69.63 56.68 71.56 C 52.16 72.83 46.54 72.59 43.20 68.88 C 40.06 66.06 39.36 61.74 38.92 57.77 C 40.84 57.55 42.74 57.26 44.62 56.79 C 44.52 59.50 44.22 62.64 46.29 64.76 C 48.34 67.17 51.86 67.07 54.70 66.56 C 58.55 65.51 59.94 60.57 58.86 57.10 C 58.25 54.75 55.84 53.72 54.06 52.40 Z" />
</g>
<g id="#1e2a3744">
<path fill="#1e2a37" opacity="0.27" d=" M 44.62 56.79 C 47.98 55.85 51.17 54.35 54.06 52.40 C 55.84 53.72 58.25 54.75 58.86 57.10 C 59.94 60.57 58.55 65.51 54.70 66.56 C 51.86 67.07 48.34 67.17 46.29 64.76 C 44.22 62.64 44.52 59.50 44.62 56.79 Z" />
</g>
<g id="#425c7894">
<path fill="#425c78" opacity="0.58" d=" M 23.61 62.04 C 23.99 59.91 24.31 57.69 25.51 55.83 C 27.60 56.39 29.69 56.95 31.82 57.35 C 27.46 60.74 31.20 66.69 31.97 71.01 C 28.64 68.57 25.93 65.44 23.61 62.04 Z" />
</g>
<g id="#6b6b6bff">
<path fill="#6b6b6b" opacity="1.00" d=" M 87.09 59.19 C 88.21 58.43 89.33 57.66 90.46 56.91 C 89.30 61.44 87.20 65.65 84.79 69.64 C 85.93 70.30 87.08 70.95 88.22 71.63 C 87.81 72.34 87.00 73.77 86.59 74.49 C 84.68 73.06 82.39 72.27 80.03 72.00 C 82.83 68.00 85.46 63.81 87.09 59.19 Z" />
</g>
<g id="#39506881">
<path fill="#395068" opacity="0.51" d=" M 31.97 71.01 C 31.20 66.69 27.46 60.74 31.82 57.35 C 32.55 57.46 34.03 57.69 34.76 57.80 C 34.91 61.35 34.65 65.22 36.68 68.33 C 38.34 70.83 40.40 73.04 42.18 75.45 C 38.46 74.80 35.15 72.94 31.97 71.01 Z" />
</g>
<g id="#000000ff">
<path fill="#000000" opacity="1.00" d=" M 77.71 72.92 C 78.29 72.69 79.45 72.23 80.03 72.00 C 82.39 72.27 84.68 73.06 86.59 74.49 C 95.42 82.57 104.57 90.29 113.58 98.17 C 114.50 99.42 115.62 100.51 116.96 101.32 C 117.85 103.96 118.72 107.15 116.30 109.28 C 114.31 112.76 109.33 112.98 106.46 110.48 C 96.25 102.33 86.97 93.04 76.67 85.02 C 75.20 82.93 74.07 80.55 73.97 77.96 C 74.55 76.86 75.15 75.77 75.75 74.69 C 76.40 74.10 77.06 73.51 77.71 72.92 M 83.11 76.21 C 83.04 76.65 82.90 77.52 82.83 77.96 C 92.47 86.75 102.50 95.13 112.25 103.81 C 113.09 104.74 115.21 105.89 115.76 103.96 C 114.73 102.17 112.96 101.00 111.46 99.65 C 102.88 92.20 94.34 84.72 85.77 77.26 C 85.05 76.47 84.16 76.12 83.11 76.21 Z" />
</g>
<g id="#484848ff">
<path fill="#484848" opacity="1.00" d=" M 88.22 71.63 C 97.64 79.95 107.21 88.10 116.65 96.40 C 119.44 98.74 121.19 102.39 120.63 106.06 C 120.08 111.59 114.53 116.01 109.00 115.14 C 106.13 114.92 103.78 113.05 101.67 111.26 C 92.61 103.33 83.49 95.47 74.42 87.56 C 73.38 86.72 72.60 85.65 72.17 84.38 C 71.72 84.19 70.81 83.81 70.35 83.62 C 70.44 83.37 70.61 82.87 70.69 82.63 C 72.54 83.73 74.54 84.63 76.67 85.02 C 86.97 93.04 96.25 102.33 106.46 110.48 C 109.33 112.98 114.31 112.76 116.30 109.28 C 118.72 107.15 117.85 103.96 116.96 101.32 C 117.18 99.41 115.67 97.27 113.58 98.17 C 104.57 90.29 95.42 82.57 86.59 74.49 C 87.00 73.77 87.81 72.34 88.22 71.63 Z" />
</g>
<g id="#6d6d6dff">
<path fill="#6d6d6d" opacity="1.00" d=" M 59.85 85.59 C 65.02 84.05 69.71 81.22 73.97 77.96 C 74.07 80.55 75.20 82.93 76.67 85.02 C 74.54 84.63 72.54 83.73 70.69 82.63 C 70.61 82.87 70.44 83.37 70.35 83.62 L 70.24 83.94 C 66.57 85.52 63.05 87.48 59.12 88.41 C 59.31 87.71 59.67 86.30 59.85 85.59 Z" />
</g>
<g id="#787878ff">
<path fill="#787878" opacity="1.00" d=" M 113.58 98.17 C 115.67 97.27 117.18 99.41 116.96 101.32 C 115.62 100.51 114.50 99.42 113.58 98.17 Z" />
</g>
</svg>
